<mxfile host="app.diagrams.net" modified="2023-09-12T05:47:29.053Z" agent="Mozilla/5.0 (Windows NT 10.0; Win64; x64) AppleWebKit/537.36 (KHTML, like Gecko) Chrome/116.0.0.0 Safari/537.36 Edg/116.0.1938.69" version="21.7.4" etag="Ac5ewlxcsuTAOYjCTvoD" type="github">
  <diagram name="第 1 页" id="YF-7FAHOgDZphgBlSyij">
    <mxGraphModel>
      <root>
        <mxCell id="0" />
        <mxCell id="1" parent="0" />
      </root>
    </mxGraphModel>
  </diagram>
</mxfile>
